<svg width="463" height="241" viewBox="0 0 463 241" fill="none" class="icon dashboard2__illustration"><path d="M115.238 70.1404H43.9521V225.95H115.238V70.1404Z" fill="#EEEEEE"></path><path d="M176.182 154.139H85.6982V225.95H176.182V154.139Z" fill="#EEEEEE"></path><path d="M213.933 180.932H123.449V225.95H213.933V180.932Z" fill="#EEEEEE"></path><path d="M385.492 51.2043H327.194V225.95H385.492V51.2043Z" fill="#EEEEEE"></path><path d="M462.957 121.592H364.863V225.95H462.957V121.592Z" fill="#EEEEEE"></path><path d="M390.869 180.932H292.775V225.95H390.869V180.932Z" fill="#EEEEEE"></path><path d="M320.239 86.4299H222.146V225.949H320.239V86.4299Z" fill="#EEEEEE"></path><path d="M50.7885 107.974H0V225.95H50.7885V107.974Z" fill="#EEEEEE"></path><path d="M11.7867 114.309H6.90332V123.515H11.7867V114.309Z" fill="white"></path><path d="M19.1119 114.309H14.2285V123.515H19.1119V114.309Z" fill="white"></path><path d="M54.7428 76.9221H49.8594V86.1281H54.7428V76.9221Z" fill="white"></path><path d="M62.068 76.9221H57.1846V86.1281H62.068V76.9221Z" fill="white"></path><path d="M60.8473 89.4604H55.9639V98.6665H60.8473V89.4604Z" fill="white"></path><path d="M68.1715 89.4604H63.2881V98.6665H68.1715V89.4604Z" fill="white"></path><path d="M26.6812 114.309H21.7979V123.515H26.6812V114.309Z" fill="white"></path><path d="M27.9029 132.167H23.0195V141.373H27.9029V132.167Z" fill="white"></path><path d="M35.2281 132.167H30.3447V141.373H35.2281V132.167Z" fill="white"></path><path d="M42.7975 132.167H37.9141V141.373H42.7975V132.167Z" fill="white"></path><path d="M27.9029 144.933H23.0195V154.139H27.9029V144.933Z" fill="white"></path><path d="M35.2281 144.933H30.3447V154.139H35.2281V144.933Z" fill="white"></path><path d="M42.7975 144.933H37.9141V154.139H42.7975V144.933Z" fill="white"></path><path d="M27.7809 157.243H22.8975V166.449H27.7809V157.243Z" fill="white"></path><path d="M35.1051 157.243H30.2217V166.449H35.1051V157.243Z" fill="white"></path><path d="M42.6754 157.243H37.792V166.449H42.6754V157.243Z" fill="white"></path><path d="M97.9449 166.449H93.0615V175.655H97.9449V166.449Z" fill="white"></path><path d="M105.27 166.449H100.387V175.655H105.27V166.449Z" fill="white"></path><path d="M112.841 166.449H107.958V175.655H112.841V166.449Z" fill="white"></path><path d="M120.821 166.449H115.938V175.655H120.821V166.449Z" fill="white"></path><path d="M128.146 166.449H123.263V175.655H128.146V166.449Z" fill="white"></path><path d="M135.715 166.449H130.832V175.655H135.715V166.449Z" fill="white"></path><path d="M291.489 137.912H286.605V147.118H291.489V137.912Z" fill="white"></path><path d="M299.47 137.912H294.587V147.118H299.47V137.912Z" fill="white"></path><path d="M306.795 137.912H301.911V147.118H306.795V137.912Z" fill="white"></path><path d="M314.363 137.912H309.479V147.118H314.363V137.912Z" fill="white"></path><path d="M291.489 149.536H286.605V158.742H291.489V149.536Z" fill="white"></path><path d="M299.47 149.536H294.587V158.742H299.47V149.536Z" fill="white"></path><path d="M306.795 149.536H301.911V158.742H306.795V149.536Z" fill="white"></path><path d="M314.363 149.536H309.479V158.742H314.363V149.536Z" fill="white"></path><path d="M291.489 161.846H286.605V171.052H291.489V161.846Z" fill="white"></path><path d="M299.47 161.846H294.587V171.052H299.47V161.846Z" fill="white"></path><path d="M306.795 161.846H301.911V171.052H306.795V161.846Z" fill="white"></path><path d="M314.363 161.846H309.479V171.052H314.363V161.846Z" fill="white"></path><path d="M432.956 128.529H428.072V137.735H432.956V128.529Z" fill="white"></path><path d="M440.935 128.529H436.052V137.735H440.935V128.529Z" fill="white"></path><path d="M432.956 141.89H428.072V151.096H432.956V141.89Z" fill="white"></path><path d="M440.935 141.89H436.052V151.096H440.935V141.89Z" fill="white"></path><path d="M403.165 154.139H398.281V163.345H403.165V154.139Z" fill="white"></path><path d="M411.146 154.139H406.263V163.345H411.146V154.139Z" fill="white"></path><path d="M418.471 154.139H413.588V163.345H418.471V154.139Z" fill="white"></path><path d="M426.041 154.139H421.157V163.345H426.041V154.139Z" fill="white"></path><path d="M403.165 166.449H398.281V175.655H403.165V166.449Z" fill="white"></path><path d="M411.146 166.449H406.263V175.655H411.146V166.449Z" fill="white"></path><path d="M418.471 166.449H413.588V175.655H418.471V166.449Z" fill="white"></path><path d="M426.041 166.449H421.157V175.655H426.041V166.449Z" fill="white"></path><path d="M355.87 54.9617H350.986V64.1677H355.87V54.9617Z" fill="white"></path><path d="M363.849 54.9617H358.966V64.1677H363.849V54.9617Z" fill="white"></path><path d="M371.174 54.9617H366.291V64.1677H371.174V54.9617Z" fill="white"></path><path d="M378.744 54.9617H373.86V64.1677H378.744V54.9617Z" fill="white"></path><path d="M355.87 68.3462H350.986V77.5522H355.87V68.3462Z" fill="white"></path><path d="M363.849 68.3462H358.966V77.5522H363.849V68.3462Z" fill="white"></path><path d="M371.174 68.3462H366.291V77.5522H371.174V68.3462Z" fill="white"></path><path d="M378.744 68.3462H373.86V77.5522H378.744V68.3462Z" fill="white"></path><path d="M448.26 128.529H443.377V137.735H448.26V128.529Z" fill="white"></path><path d="M455.83 128.529H450.946V137.735H455.83V128.529Z" fill="white"></path><path d="M448.26 141.89H443.377V151.096H448.26V141.89Z" fill="white"></path><path d="M455.83 141.89H450.946V151.096H455.83V141.89Z" fill="white"></path><path d="M291.414 237.191C292.439 237.659 294.974 239.23 295.367 239.923C292.121 239.833 288.8 239.954 285.438 239.923C284.755 239.993 283.097 239.881 282.284 239.928V239.923C281.574 237.838 280.879 235.859 280.203 233.964C280.869 233.91 281.539 233.915 282.204 233.981C283.064 234.073 283.913 234.256 284.735 234.527C287.014 235.278 289.244 236.168 291.414 237.191Z" fill="#1B1B1B"></path><path d="M283.746 58.7284C282.181 63.1982 280.01 68.841 277.212 71.6673C276.903 71.2592 276.652 70.9311 276.428 70.6606C276.086 70.2161 275.696 69.8107 275.264 69.4516C275.162 69.3682 275.087 69.2549 275.051 69.1273C275.015 68.9997 275.02 68.8642 275.064 68.7394C275.248 68.2233 275.588 67.2991 276.013 66.162C277.683 61.6898 280.663 53.8489 280.663 53.8489C282.235 54.2882 282.853 54.9203 284.134 55.8133C284.278 55.9125 284.385 56.0557 284.439 56.2212C284.494 56.3867 284.493 56.5655 284.436 56.7303C284.218 57.3577 283.99 58.029 283.746 58.7284Z" fill="#BC1D45"></path><path d="M283.772 58.8613C283.962 59.9268 283.955 61.0183 283.75 62.0812C283.444 63.5335 282.995 64.9521 282.411 66.3166C281.166 69.4805 281.909 70.4047 279.13 72.3579C278.387 72.8788 277.562 73.2749 276.688 73.8102C276.457 73.6282 276.243 73.4263 276.048 73.2069C276.777 72.6372 277.219 72.1139 277.219 71.665C280.019 68.8387 282.188 63.1959 283.752 58.7261C283.755 58.7725 283.765 58.8181 283.772 58.8613Z" fill="#FFCEA9"></path><path d="M261.366 186.489C252.684 171.417 245.544 164.1 237.74 148.588C241.476 148.794 245.193 149.382 248.934 149.491C256.479 162.63 259.158 170.399 265.782 184.271C271.338 198.8 277.385 217.454 282.199 233.978C281.534 233.913 280.864 233.907 280.199 233.962C273.799 216.126 268.587 205.816 261.366 186.489Z" fill="#84182D"></path><path d="M277.21 71.6638C277.21 72.1127 276.768 72.636 276.039 73.2058C275.698 72.8198 275.411 72.389 275.186 71.9255C275.543 71.5961 275.877 71.2429 276.187 70.8684L276.427 70.6604C276.647 70.9309 276.9 71.2589 277.21 71.6638Z" fill="#FFDABB"></path><path d="M276.427 70.6604L276.187 70.8685C275.877 71.243 275.543 71.5961 275.186 71.9255C274.963 71.4658 274.798 70.9801 274.695 70.4796C274.503 69.7113 274.511 68.9064 274.719 68.1423C274.928 67.3781 275.329 66.6804 275.885 66.1162L276.008 66.1618C275.583 67.3013 275.243 68.2231 275.06 68.7392C275.016 68.864 275.011 68.9995 275.047 69.1271C275.083 69.2547 275.157 69.368 275.26 69.4514C275.692 69.8103 276.083 70.2158 276.427 70.6604Z" fill="#FFDABB"></path><path d="M276.684 73.8126C276.419 73.9726 276.151 74.1454 275.878 74.3415C273.802 75.9157 271.829 77.6206 269.97 79.4458C269.641 79.3814 269.308 79.3442 268.973 79.3346C268.698 78.8761 268.422 78.42 268.15 77.9615C268.408 77.7566 268.665 77.5483 268.92 77.3365C271.578 75.8962 274.473 74.4375 276.042 73.2092C276.238 73.4288 276.453 73.6306 276.684 73.8126Z" fill="#FFCEA9"></path><path d="M275.189 71.9258C275.414 72.3893 275.701 72.8201 276.042 73.2061C274.474 74.4343 271.578 75.8923 268.921 77.3334C270.864 75.7501 272.766 74.1177 274.629 72.4363C274.821 72.2707 275.002 72.0994 275.189 71.9258Z" fill="#FFDABB"></path><path d="M269.393 80.0369C269.713 80.5723 270.037 81.1108 270.358 81.6469C265.551 84.101 262.879 86.0151 258.102 88.2164C257.423 88.5278 256.685 88.6939 255.938 88.7043C255.19 88.7146 254.449 88.5689 253.761 88.2764C252.653 87.8083 251.56 87.3714 250.464 86.9393C250.064 85.7123 249.664 84.4854 249.264 83.2585L249.315 82.6183C250.957 83.2721 252.668 83.7368 254.414 84.0034C258.536 84.6772 262.243 82.9632 266.639 79.9009C267.179 79.5795 267.789 79.3931 268.417 79.3576C268.6 79.3364 268.785 79.3284 268.97 79.3336L269.393 80.0369Z" fill="#BC1D45"></path><path d="M269.971 79.4457C269.758 79.6553 269.565 79.8538 269.394 80.037L268.974 79.3345C269.308 79.3441 269.642 79.3813 269.971 79.4457Z" fill="#FFCEA9"></path><path d="M268.15 77.9612C268.422 78.4197 268.697 78.8758 268.973 79.3343C268.788 79.3291 268.603 79.3371 268.42 79.3583C267.792 79.3938 267.182 79.5802 266.642 79.9016C262.246 82.9615 258.539 84.6779 254.417 84.0041C252.67 83.7375 250.96 83.2728 249.318 82.619C246.663 81.5008 244.264 79.8546 242.266 77.7803C240.504 75.7543 238.899 73.5969 237.465 71.3269C235.712 67.0211 234.354 63.8108 233.815 59.3634C233.815 59.3586 233.815 59.3514 233.815 59.3442C233.639 57.5582 233.506 55.793 233.415 54.0486C233.548 54.0172 233.681 53.9833 233.815 53.947C233.949 53.9939 234.064 54.084 234.141 54.2031C234.295 54.4303 234.395 54.6893 234.435 54.9609C236.007 64.8631 242.9 75.7551 252.001 79.868C253.319 80.5082 254.729 80.9365 256.181 81.1371C260.281 81.5836 264.107 79.2303 267.56 76.9762C267.756 77.305 267.952 77.6331 268.15 77.9612Z" fill="#D0253F"></path><path d="M237.741 148.591C237.101 148.552 236.461 148.528 235.821 148.519C230.004 148.439 224.253 149.626 218.457 150.087C217.673 150.151 216.885 150.196 216.092 150.225C213.058 150.38 210.017 150.128 207.05 149.474C205.106 149.029 203.235 148.308 201.495 147.334C198.889 145.849 196.654 143.742 193.951 142.439C191.503 141.259 188.38 140.887 186.143 142.304C192.285 137.559 197.068 130.584 201.005 123.083C203.333 123.327 205.634 123.788 207.876 124.459C211.496 125.44 215.203 126.066 218.944 126.327C222.694 126.484 226.449 126.265 230.155 125.673C231.238 126.397 232.465 126.879 233.751 127.087C234.35 127.181 234.957 127.217 235.563 127.196C236.566 127.603 237.659 127.735 238.73 127.577C239.912 127.367 241.019 126.849 241.938 126.075C242.856 125.301 243.555 124.298 243.962 123.167C245.89 122.827 247.819 122.527 249.747 122.308C250.85 125.424 252.045 128.506 253.442 131.497C254.936 134.697 256.669 137.772 258.403 140.848C259.475 142.751 260.547 144.653 261.618 146.557C258.191 148.854 253.83 149.561 249.662 149.51C249.422 149.51 249.181 149.503 248.941 149.493C245.194 149.385 241.477 148.796 237.741 148.591Z" fill="#D0253F"></path><path d="M245.373 121.466C245.293 121.466 245.213 121.466 245.133 121.471C244.884 121.481 244.638 121.488 244.392 121.493C241.138 121.59 237.884 121.662 234.63 121.71C234.101 121.624 233.598 121.419 233.16 121.111L233.145 121.097C232.286 120.194 231.444 119.274 230.618 118.336C235.408 117.073 239.782 114.572 243.299 111.083C243.375 111.002 243.419 110.895 243.421 110.784C243.42 110.673 243.375 110.566 243.296 110.487L235.274 102.608C235.194 102.53 235.088 102.487 234.977 102.487C234.87 102.488 234.768 102.53 234.692 102.605C231.694 105.521 227.685 107.166 223.503 107.195C223.047 107.2 222.596 107.183 222.147 107.15C221.679 106.43 221.222 105.704 220.776 104.973C221.778 104.247 222.78 103.519 223.781 102.791C220.469 101.085 217.523 98.7469 215.109 95.9095C215.696 94.4131 216.285 92.9176 216.876 91.4229C228.548 91.5461 240.217 91.6701 251.883 91.7949C252.346 100.959 252.203 112.307 252.308 121.217C251.337 121.255 250.366 121.292 249.395 121.328C248.053 121.378 246.712 121.424 245.373 121.466Z" fill="#C8471D"></path><path d="M237.526 83.1384C237.686 83.1384 237.846 83.1384 238.006 83.1432L241.673 83.1793C244.204 83.2054 246.736 83.2321 249.267 83.2593C249.666 84.4862 250.066 85.7132 250.467 86.9401C250.931 88.3671 251.395 89.7943 251.858 91.2218C251.868 91.4123 251.877 91.6051 251.887 91.7988C240.218 91.6734 228.549 91.5494 216.88 91.4267C217.992 88.6053 219.104 85.7838 220.215 82.9624C225.984 83.0205 231.754 83.0792 237.526 83.1384Z" fill="#E76122"></path><path d="M249.396 121.331C249.509 121.657 249.625 121.983 249.741 122.308C247.813 122.528 245.884 122.828 243.956 123.168C243.987 123.088 244.014 123.001 244.036 122.917C244.391 122.508 244.722 122.079 245.026 121.631C245.144 121.575 245.258 121.522 245.368 121.467C246.711 121.426 248.053 121.381 249.396 121.331Z" fill="#BC1D45"></path><path d="M249.319 82.6191L249.268 83.2593C246.736 83.2353 244.205 83.2086 241.673 83.1792C240.313 82.4983 238.921 81.7333 237.469 80.8379C235.802 73.7636 234.583 66.5913 233.819 59.3635C234.358 63.8109 235.717 67.0212 237.469 71.327C238.903 73.597 240.508 75.7544 242.27 77.7804C244.267 79.8543 246.666 81.5005 249.319 82.6191Z" fill="#BC1D45"></path><path d="M245.134 121.471C245.214 121.471 245.294 121.466 245.374 121.466C245.263 121.522 245.15 121.575 245.031 121.63C245.068 121.578 245.105 121.524 245.134 121.471Z" fill="#C8471D"></path><path d="M245.133 121.471C245.102 121.524 245.065 121.578 245.027 121.631C244.803 121.733 244.559 121.836 244.276 121.959C244.332 121.73 244.38 121.537 244.392 121.496C244.641 121.488 244.887 121.481 245.133 121.471Z" fill="#C8471D"></path><path d="M244.395 121.493C244.383 121.534 244.334 121.727 244.279 121.956C243.866 122.135 243.372 122.356 242.739 122.668C242.131 123.048 241.426 123.245 240.709 123.236C239.657 123.175 238.549 123.602 236.735 123.378C236.399 123.334 235.282 123.595 232.719 121.495L233.146 121.095L233.16 121.11C233.599 121.418 234.101 121.622 234.63 121.708C237.885 121.661 241.14 121.589 244.395 121.493Z" fill="#FFCEA9"></path><path d="M244.279 121.958C244.562 121.835 244.806 121.732 245.03 121.63C244.726 122.079 244.395 122.508 244.04 122.917L244.048 122.895C244.07 122.825 244.185 122.34 244.279 121.958Z" fill="#C8471D"></path><path d="M244.278 121.958C244.184 122.34 244.069 122.825 244.047 122.895L244.039 122.917C243.959 123.011 243.879 123.103 243.793 123.194C240.164 123.834 236.531 124.609 232.894 125.234C232.715 125.008 232.553 124.77 232.409 124.521C232.4 124.506 232.393 124.489 232.39 124.471C232.305 124.021 232.089 123.605 231.769 123.276C231.227 122.787 230.669 122.282 230.104 121.763C229.144 120.883 228.156 119.963 227.16 119.021C223.431 115.495 219.548 111.641 216.292 108.226C216.49 108.081 216.692 107.939 216.888 107.794C221.121 107.816 221.71 108.151 224.177 111.603C228.033 116.997 230.785 119.916 232.718 121.498C235.279 123.597 236.399 123.338 236.734 123.38C238.549 123.604 239.656 123.177 240.709 123.238C241.426 123.247 242.13 123.051 242.739 122.671C243.372 122.355 243.865 122.137 244.278 121.958Z" fill="#FFDABB"></path><path d="M244.04 122.917C244.013 122.997 243.987 123.086 243.96 123.168C243.907 123.175 243.853 123.184 243.8 123.194C243.881 123.103 243.963 123.011 244.04 122.917Z" fill="#FFDABB"></path><path d="M243.793 123.195C243.849 123.186 243.902 123.176 243.953 123.169C243.546 124.299 242.848 125.302 241.929 126.076C241.01 126.85 239.904 127.369 238.721 127.579C237.65 127.736 236.557 127.604 235.555 127.197C238.002 127.08 240.349 126.187 242.255 124.646C242.806 124.205 243.32 123.72 243.793 123.195Z" fill="#FFDABB"></path><path d="M240.084 32.3184C239.075 33.2238 237.939 33.9767 236.712 34.5533C237 34.7104 237.329 34.7736 237.654 34.7341C238.026 34.8011 238.409 34.7647 238.762 34.629C239.115 34.4932 239.423 34.2634 239.654 33.9644C239.948 33.4664 240.097 32.8964 240.084 32.3184ZM240.077 32.3136C238.75 31.0651 237.843 29.4362 237.48 27.651C237.487 28.5837 237.728 29.4997 238.182 30.3146C238.636 31.1295 239.287 31.817 240.077 32.3136ZM233.621 37.7892C234.06 38.3074 234.646 38.6796 235.302 38.856C235.958 39.0324 236.652 39.0047 237.292 38.7766C237.933 38.5133 238.486 38.0709 238.883 37.5023C239.28 36.9336 239.506 36.2627 239.532 35.5695C239.16 36.2474 238.673 36.8551 238.092 37.3651C236.865 38.3982 234.92 38.7574 233.672 37.7508L233.621 37.7892ZM226.064 33.197C225.927 33.1249 225.797 33.04 225.676 32.9433C225.209 32.574 224.899 32.0409 224.81 31.4518C224.774 31.0978 224.793 30.7404 224.867 30.3924C224.922 29.9595 225.08 29.546 225.326 29.1857C225.452 29.0078 225.624 28.8679 225.824 28.7811C226.024 28.6944 226.244 28.6641 226.46 28.6936C226.628 28.7303 226.783 28.8072 226.914 28.9176C227.62 27.0855 228.872 25.5143 230.5 24.4166C233.966 22.1265 238.402 21.9865 242.244 20.4157C242.335 20.3804 242.423 20.3401 242.51 20.2949C243.568 23.3891 243.944 26.6757 243.613 29.9291C243.433 32.7347 242.473 35.4344 240.842 37.7244C240.062 38.7828 239.052 39.6499 237.887 40.2599C236.723 40.8699 235.435 41.2068 234.12 41.2452C233.949 41.2452 233.773 41.2348 233.602 41.2204C232.88 41.1562 232.172 40.9763 231.507 40.6875C230.169 40.0356 228.992 39.0954 228.06 37.9345C227.128 36.7736 226.465 35.4208 226.118 33.9732C226.096 33.8932 226.076 33.8131 226.057 33.7331V33.7275C226.059 33.5515 226.062 33.373 226.064 33.197ZM243.659 28.6736C243.267 27.2381 242.237 26.1786 241.132 26.0866C240.027 25.9946 238.914 27.3077 238.402 28.6736C239.966 27.2541 241.754 27.1028 243.659 28.6736ZM230.824 31.3726C231.79 29.3161 233.64 28.2327 236.517 28.58C236.022 28.1297 235.41 27.828 234.751 27.7092C234.093 27.5905 233.414 27.6596 232.793 27.9086C231.562 28.4255 230.855 30.0379 230.824 31.3726Z" fill="#FFDABB"></path><path d="M243.296 110.487C243.375 110.566 243.419 110.672 243.421 110.784C243.418 110.895 243.375 111.002 243.298 111.083C239.781 114.572 235.408 117.073 230.618 118.336C227.523 114.82 224.692 111.081 222.146 107.149C222.595 107.183 223.047 107.2 223.503 107.195C227.685 107.166 231.694 105.521 234.692 102.605C234.768 102.53 234.87 102.488 234.977 102.487C235.087 102.487 235.194 102.53 235.273 102.608L243.296 110.487Z" fill="#C8471D"></path><path d="M242.934 18.7811C243.017 18.9446 243.066 19.123 243.079 19.3058C243.091 19.4886 243.067 19.6721 243.007 19.8453C242.895 20.0449 242.72 20.2018 242.509 20.2918C242.423 20.337 242.335 20.3773 242.244 20.4126C238.403 21.9866 233.966 22.1266 230.5 24.4135C228.872 25.5112 227.62 27.0823 226.914 28.9145C226.783 28.8041 226.628 28.7272 226.46 28.6905C226.244 28.661 226.024 28.6913 225.824 28.778C225.624 28.8648 225.452 29.0047 225.326 29.1826C225.079 29.5429 224.922 29.9564 224.867 30.3893C224.793 30.7373 224.774 31.0947 224.81 31.4487C224.899 32.0378 225.209 32.5709 225.676 32.9402C225.797 33.0369 225.927 33.1218 226.064 33.1939C226.064 33.3699 226.059 33.5484 226.064 33.7244V33.7356C224.617 32.3577 223.147 30.0916 223.069 28.0936C222.912 23.8851 223.709 19.6956 225.398 15.838C225.777 14.9221 226.264 14.0549 226.849 13.255C226.999 13.0573 227.16 12.8674 227.329 12.6861C227.786 12.2026 228.315 11.7914 228.895 11.4666C230.083 10.8412 231.399 10.5006 232.741 10.4717C234.083 10.4428 235.413 10.7265 236.626 11.3002C239.657 12.7213 241.793 15.634 242.934 18.7811Z" fill="#1B1B1B"></path><path d="M241.132 26.0865C242.237 26.1786 243.267 27.238 243.659 28.6735C241.754 27.1028 239.966 27.25 238.402 28.6735C238.913 27.3076 240.028 25.9977 241.132 26.0865Z" fill="#1B1B1B"></path><path d="M243.795 123.196C243.322 123.72 242.808 124.205 242.258 124.646C240.352 126.187 238.005 127.081 235.558 127.197C234.515 126.786 233.597 126.11 232.896 125.235C236.532 124.609 240.165 123.836 243.795 123.196Z" fill="#FFDABB"></path><path d="M240.084 32.3181C240.098 32.8958 239.95 33.4659 239.657 33.9641C239.426 34.2631 239.117 34.4929 238.765 34.6287C238.412 34.7644 238.029 34.8008 237.657 34.7339C237.332 34.7733 237.002 34.7101 236.715 34.553C237.941 33.9762 239.076 33.2233 240.084 32.3181Z" fill="#E8A679"></path><path d="M237.48 27.6541C237.843 29.4393 238.75 31.0682 240.077 32.3167C239.288 31.8201 238.636 31.1326 238.182 30.3177C237.728 29.5028 237.487 28.5868 237.48 27.6541Z" fill="#E8A679"></path><path d="M239.536 35.5762C239.508 36.2687 239.282 36.9385 238.884 37.506C238.486 38.0734 237.933 38.5146 237.292 38.7769C236.652 39.0052 235.957 39.0328 235.301 38.8559C234.645 38.6791 234.058 38.3062 233.619 37.7871L233.667 37.7487C234.915 38.7553 236.86 38.396 238.087 37.363C238.67 36.8564 239.161 36.2517 239.536 35.5762Z" fill="#E8A679"></path><path d="M238.006 83.1434C237.846 83.1434 237.686 83.1386 237.526 83.1386C233.97 82.3231 230.32 81.9958 226.675 82.1655C225.075 82.236 222.927 82.1151 222.585 80.546C222.524 79.7311 222.759 78.9216 223.246 78.2655C225.602 73.8541 227.266 69.107 228.181 64.1903C228.7 61.4697 228.826 58.7163 228.027 56.6871C227.361 55.2359 226.236 54.0441 224.826 53.2959C225.248 53.5109 225.684 53.6957 226.132 53.8488C227.802 54.4045 229.572 54.5955 231.323 54.4089C231.468 54.3935 231.612 54.3764 231.757 54.3577C232.316 54.2854 232.87 54.1823 233.417 54.0489C233.507 55.7917 233.64 57.5568 233.817 59.3444C233.817 59.3516 233.817 59.3589 233.817 59.3637C234.581 66.5914 235.8 73.7637 237.467 80.838C237.642 81.6054 237.823 82.3728 238.006 83.1434Z" fill="#BC1D45"></path><path d="M236.517 28.5799C233.64 28.2326 231.789 29.316 230.823 31.3725C230.854 30.0378 231.562 28.4254 232.792 27.9085C233.414 27.6595 234.092 27.5904 234.751 27.7091C235.41 27.8279 236.021 28.1296 236.517 28.5799Z" fill="#1B1B1B"></path><path d="M235.558 127.196C234.952 127.218 234.345 127.181 233.745 127.087C232.459 126.88 231.233 126.397 230.149 125.673C231.066 125.538 231.982 125.392 232.896 125.234C233.597 126.109 234.515 126.785 235.558 127.196Z" fill="#C8471D"></path><path d="M237.526 83.1383C231.755 83.0775 225.984 83.0185 220.212 82.9615C221.858 78.7845 223.503 74.6079 225.147 70.4315C226.817 66.1905 228.508 61.4895 226.994 57.1909C226.344 55.3449 224.754 53.6021 222.944 53.262C223.235 53.1529 223.537 53.0725 223.844 53.022C223.965 53.0028 224.09 52.9836 224.223 52.9644L224.235 52.9716C224.25 52.9812 224.283 53.0028 224.363 53.046C224.513 53.1332 224.665 53.218 224.822 53.2948C226.232 54.0431 227.357 55.2348 228.022 56.686C228.823 58.7152 228.696 61.4719 228.177 64.1893C227.262 69.106 225.597 73.853 223.241 78.2644C222.754 78.9206 222.52 79.73 222.58 80.5449C222.923 82.1141 225.069 82.2349 226.671 82.1645C230.317 81.9946 233.969 82.3223 237.526 83.1383Z" fill="#BC1D45"></path><path d="M234.125 41.2435C233.01 45.2383 232.239 49.3214 231.82 53.4478C231.794 53.7543 231.771 54.0559 231.752 54.3552C231.607 54.3744 231.462 54.3915 231.318 54.4064C229.567 54.5929 227.797 54.4019 226.127 53.8463C226.26 53.5518 226.389 53.255 226.517 52.9605C228.301 48.9207 229.965 44.8299 231.509 40.6882V40.6833C232.174 40.9722 232.881 41.1521 233.604 41.2163C233.777 41.2331 233.953 41.2435 234.125 41.2435Z" fill="#FFDABB"></path><path d="M233.812 53.9471C233.68 53.9839 233.546 54.0178 233.412 54.0487C232.865 54.1821 232.311 54.2853 231.752 54.3576C231.771 54.0583 231.794 53.7567 231.82 53.4502C232.495 53.5694 233.161 53.7354 233.812 53.9471Z" fill="#D0253F"></path><path d="M222.148 107.149C224.694 111.081 227.525 114.82 230.62 118.336C231.445 119.272 232.287 120.192 233.147 121.097L232.72 121.497C230.786 119.916 228.035 116.996 224.178 111.602C221.712 108.15 221.123 107.815 216.89 107.793L220.778 104.972C221.225 105.705 221.682 106.431 222.148 107.149Z" fill="#FFCEA9"></path><path d="M232.41 124.521C232.555 124.77 232.717 125.008 232.895 125.234C231.981 125.39 231.066 125.537 230.149 125.673C228.713 124.741 227.607 123.381 226.989 121.785C228.027 121.78 229.066 121.773 230.105 121.763C230.67 122.282 231.225 122.787 231.77 123.276C232.09 123.605 232.306 124.02 232.391 124.471C232.394 124.489 232.401 124.506 232.41 124.521Z" fill="#BC1D45"></path><path d="M226.989 121.785C218.603 121.825 210.218 121.716 201.834 121.457C199.923 121.403 198.013 121.338 196.104 121.261C196.337 118.246 196.568 115.232 196.797 112.219C196.978 109.856 197.159 107.493 197.304 105.128C197.598 100.301 197.739 95.4677 197.726 90.6282C200.764 91.015 203.819 91.2364 206.881 91.2915C206.021 93.4787 205.148 95.6621 204.26 97.8418C204.044 98.2723 203.931 98.7475 203.931 99.2293C204.029 99.7813 204.278 100.295 204.651 100.714C205.951 102.451 207.362 104.101 208.877 105.654L203.777 110.845C203.739 110.885 203.708 110.932 203.688 110.983C203.668 111.035 203.658 111.09 203.659 111.145C203.66 111.2 203.672 111.255 203.694 111.305C203.717 111.356 203.749 111.401 203.789 111.439C209.119 116.545 216.238 119.358 223.619 119.273C224.805 119.261 225.99 119.178 227.167 119.022C228.163 119.964 229.15 120.883 230.11 121.764C229.069 121.773 228.029 121.78 226.989 121.785Z" fill="#C8471D"></path><path d="M229.962 4.57297C230.324 5.40678 230.459 6.32201 230.352 7.22495C230.244 8.12789 229.899 8.9861 229.351 9.71171C228.944 10.2134 229.448 10.872 228.895 11.4633C228.314 11.7881 227.786 12.1993 227.329 12.6828C227.159 12.8641 226.999 13.054 226.849 13.2517C225.281 14.911 223.289 16.1084 221.088 16.7133C220.143 16.9564 219.151 16.9455 218.213 16.6817C217.274 16.418 216.421 15.9107 215.742 15.2113C215.097 14.4823 214.74 13.5431 214.738 12.5698C214.735 11.5965 215.088 10.6558 215.73 9.92376C215.179 10.0787 214.676 10.3677 214.265 10.7649C213.854 11.162 213.548 11.6549 213.374 12.1995C213.323 9.51929 214.306 6.92241 216.119 4.94745C215.5 4.79952 214.855 4.80996 214.242 4.97781C213.629 5.14566 213.068 5.46548 212.611 5.90766C214.228 4.09286 215.933 2.28045 218.121 1.24022C220.455 0.127973 223.511 0.103167 225.389 1.88036C225.538 2.0228 225.709 2.18683 225.914 2.16283C226.356 2.11722 226.255 1.44267 226.026 1.06258C226.889 1.34358 227.684 1.80066 228.362 2.4049C229.039 3.00913 229.584 3.74739 229.962 4.57297Z" fill="#1B1B1B"></path><path d="M226.989 121.785C227.607 123.381 228.713 124.742 230.149 125.673C226.443 126.265 222.688 126.484 218.938 126.327C215.197 126.066 211.49 125.44 207.87 124.459C205.627 123.788 203.327 123.328 200.999 123.084C201.281 122.543 201.559 122 201.834 121.457C210.216 121.718 218.601 121.827 226.989 121.785Z" fill="#BC1D45"></path><path d="M216.888 107.794C216.69 107.939 216.488 108.081 216.292 108.226C216.096 108.371 215.881 108.523 215.676 108.672C215.085 109.228 214.298 109.527 213.487 109.505C212.971 109.369 212.502 109.098 212.127 108.719C210.995 107.743 209.906 106.718 208.871 105.651C207.356 104.098 205.945 102.448 204.645 100.711C204.272 100.292 204.023 99.7783 203.925 99.2263C203.925 98.7445 204.037 98.2693 204.254 97.8388C205.141 95.6618 206.014 93.4784 206.874 91.2885C207.932 88.593 208.967 85.8892 209.981 83.1771C212.722 75.8619 215.306 68.4912 217.733 61.065C218.596 58.4244 219.653 55.5238 221.79 53.8946C222.139 53.6279 222.526 53.4148 222.938 53.2625C224.749 53.6025 226.339 55.3429 226.988 57.1913C228.499 61.4899 226.812 66.1885 225.142 70.4319C223.495 74.6094 221.85 78.786 220.206 82.9619C219.096 85.7833 217.984 88.6047 216.871 91.4262C216.284 92.9198 215.695 94.4154 215.104 95.9128C217.518 98.7502 220.464 101.088 223.776 102.794C222.774 103.521 221.772 104.248 220.771 104.976L216.888 107.794Z" fill="#D0253F"></path><path d="M226.519 52.9627C226.391 53.2572 226.261 53.5541 226.128 53.8485C225.68 53.6954 225.244 53.5107 224.822 53.2956C224.605 53.17 224.407 53.062 224.236 52.9756L224.224 52.9683C224.224 52.9683 225.162 52.9315 226.519 52.9627Z" fill="#D0253F"></path><path d="M216.293 108.226C219.549 111.641 223.432 115.495 227.161 119.021C225.985 119.177 224.8 119.261 223.613 119.272C216.233 119.357 209.114 116.544 203.784 111.438C203.744 111.4 203.711 111.355 203.689 111.304C203.667 111.254 203.655 111.199 203.653 111.144C203.652 111.089 203.662 111.034 203.683 110.982C203.703 110.931 203.733 110.884 203.772 110.845L208.872 105.653C209.907 106.722 210.996 107.746 212.127 108.721C212.503 109.1 212.972 109.371 213.488 109.508C214.299 109.529 215.086 109.23 215.677 108.675C215.883 108.523 216.088 108.375 216.293 108.226Z" fill="#C8471D"></path><path d="M207.045 149.474C210.012 150.128 213.053 150.38 216.087 150.225C214.1 155.836 211.279 162.504 209.623 167.689C208.237 172.119 206.597 176.466 204.712 180.709C203.708 183.863 195.445 193.259 191.117 199.181C184.022 208.89 176.776 218.484 169.377 227.964C169.003 227.324 168.616 226.648 168.214 225.934C176.781 215.041 184.637 203.608 191.733 191.704C193.955 188.1 195.94 184.354 197.675 180.491C199.542 175.874 201.107 171.141 202.359 166.32C203.92 160.799 205.48 154.996 207.043 149.477L207.045 149.474Z" fill="#84182D"></path><path d="M208.961 83.42C209.299 83.3216 209.642 83.2415 209.987 83.1799C208.973 85.8925 207.938 88.5963 206.881 91.2913C203.819 91.2362 200.764 91.0148 197.727 90.628C197.727 90.3239 197.727 90.0199 197.727 89.7158C200.029 88.3739 202.244 86.88 204.546 85.5381C205.926 84.655 207.409 83.9437 208.961 83.42Z" fill="#E76122"></path><path d="M180.87 240.089C177.103 240.902 174.931 240.161 171.082 240.014C170.176 240.071 169.278 239.821 168.533 239.303C167.877 238.572 167.496 237.636 167.456 236.655C167.177 234.828 166.897 233.002 166.614 231.176C166.418 230.348 166.352 229.493 166.417 228.644C166.622 227.59 167.42 226.941 168.087 226.098C168.13 226.043 168.173 225.99 168.215 225.938C168.612 226.65 169 227.327 169.377 227.968C173.878 235.634 176.833 238.255 180.87 240.089Z" fill="#1B1B1B"></path><path d="M227.16 119.021C225.984 119.177 224.799 119.261 223.612 119.272" stroke="white" stroke-miterlimit="10"></path><path d="M222.146 107.149C222.594 107.183 223.046 107.2 223.502 107.195C227.684 107.166 231.693 105.521 234.691 102.605C234.767 102.53 234.869 102.488 234.976 102.487C235.086 102.487 235.193 102.53 235.272 102.608L243.295 110.487C243.374 110.566 243.418 110.672 243.42 110.784C243.417 110.895 243.374 111.002 243.297 111.083C239.78 114.572 235.407 117.073 230.617 118.336" stroke="white" stroke-miterlimit="10" fill="#C8471D"></path><path d="M223.613 119.275C216.233 119.359 209.114 116.547 203.784 111.441C203.744 111.403 203.711 111.357 203.689 111.307C203.667 111.256 203.655 111.202 203.653 111.146C203.652 111.091 203.662 111.036 203.683 110.985C203.703 110.933 203.733 110.887 203.772 110.847L208.872 105.656" stroke="white" stroke-miterlimit="10" fill="#C8471D"></path><path d="M247.637 93.9183C247.741 93.9194 247.844 93.9411 247.94 93.9822C248.036 94.0232 248.123 94.0828 248.196 94.1575C248.269 94.2322 248.327 94.3205 248.365 94.4174C248.404 94.5144 248.424 94.618 248.422 94.7224L248.417 95.2506C248.414 95.4608 248.329 95.6616 248.179 95.809C248.029 95.9564 247.827 96.0384 247.617 96.0371L233.784 95.8771C233.574 95.8748 233.373 95.7893 233.226 95.6393C233.078 95.4893 232.997 95.2871 232.998 95.0769L233.003 94.548C233.005 94.3378 233.091 94.1371 233.241 93.9899C233.391 93.8426 233.593 93.7607 233.803 93.7622L247.637 93.9183Z" fill="#E76122"></path><path d="M247.125 97.683C247.223 97.6839 247.321 97.7043 247.411 97.7429C247.502 97.7816 247.584 97.8378 247.653 97.9082C247.722 97.9787 247.777 98.0621 247.813 98.1536C247.85 98.2451 247.868 98.3429 247.867 98.4415L247.862 98.94C247.86 99.1391 247.779 99.3291 247.636 99.4683C247.494 99.6075 247.302 99.6845 247.103 99.6826L233.838 99.5322C233.74 99.5311 233.643 99.5107 233.552 99.472C233.461 99.4333 233.379 99.3771 233.31 99.3067C233.241 99.2362 233.187 99.1529 233.151 99.0614C233.114 98.9699 233.096 98.8721 233.097 98.7736L233.104 98.2751C233.105 98.1765 233.125 98.079 233.164 97.9882C233.202 97.8975 233.258 97.8152 233.329 97.7462C233.399 97.6772 233.483 97.6228 233.574 97.5862C233.666 97.5495 233.764 97.5313 233.863 97.5325L247.125 97.683Z" fill="#E76122"></path><path d="M230.65 97.4967C230.849 97.499 231.039 97.5802 231.178 97.7224C231.318 97.8647 231.395 98.0563 231.393 98.2553L231.387 98.7554C231.386 98.8539 231.366 98.9512 231.327 99.0418C231.288 99.1324 231.232 99.2144 231.162 99.2832C231.091 99.3521 231.008 99.4063 230.916 99.4429C230.825 99.4795 230.727 99.4976 230.629 99.4964L223.9 99.422C223.701 99.4192 223.511 99.3379 223.372 99.1958C223.233 99.0537 223.156 98.8623 223.157 98.6634L223.164 98.1633C223.165 98.0646 223.186 97.9672 223.225 97.8765C223.263 97.7857 223.32 97.7035 223.39 97.6346C223.461 97.5656 223.544 97.5112 223.636 97.4745C223.727 97.4378 223.825 97.4195 223.924 97.4207L230.65 97.4967Z" fill="#E76122"></path><path d="M230.65 93.7855C230.849 93.7879 231.039 93.8691 231.179 94.0115C231.318 94.1539 231.395 94.3458 231.393 94.5449L231.387 95.0442C231.385 95.2432 231.304 95.4332 231.161 95.5724C231.019 95.7116 230.828 95.7887 230.629 95.7868L223.9 95.7108C223.701 95.708 223.511 95.6267 223.372 95.4846C223.233 95.3425 223.156 95.1511 223.157 94.9522L223.164 94.4521C223.167 94.2529 223.248 94.0629 223.39 93.9236C223.533 93.7844 223.725 93.7074 223.924 93.7095L230.65 93.7855Z" fill="#E76122"></path></svg>